<svg width="32" height="32" viewBox="0 0 32 32" fill="none" xmlns="http://www.w3.org/2000/svg">
<rect x="0.5" y="0.5" width="31" height="31" rx="15.5" stroke="#F4F8F9"/>
<path d="M22.667 9.33398H13.3337V12.7673C12.4488 12.9482 11.6294 13.3654 10.9625 13.9746C10.2957 14.5838 9.80636 15.3622 9.54645 16.2272C9.28654 17.0922 9.26579 18.0115 9.48641 18.8873C9.70702 19.7632 10.1608 20.5629 10.7994 21.2016C11.4381 21.8402 12.2378 22.294 13.1137 22.5146C13.9895 22.7352 14.9088 22.7145 15.7738 22.4545C16.6388 22.1946 17.4172 21.7053 18.0264 21.0384C18.6356 20.3716 19.0528 19.5522 19.2337 18.6673H22.667V9.33398ZM19.323 17.334C19.2422 16.1257 18.7258 14.9878 17.8695 14.1315C17.0132 13.2752 15.8753 12.7588 14.667 12.678V10.6673H21.3337V17.334H19.323ZM14.3337 14.0007C15.3061 14.0007 16.2388 14.387 16.9264 15.0746C17.614 15.7622 18.0003 16.6949 18.0003 17.6673C18.0003 18.6398 17.614 19.5724 16.9264 20.26C16.2388 20.9477 15.3061 21.334 14.3337 21.334C13.3612 21.334 12.4286 20.9477 11.741 20.26C11.0533 19.5724 10.667 18.6398 10.667 17.6673C10.667 16.6949 11.0533 15.7622 11.741 15.0746C12.4286 14.387 13.3612 14.0007 14.3337 14.0007Z" fill="#F4F8F9"/>
</svg>
