<svg width="17" height="16" viewBox="0 0 17 16" fill="none" xmlns="http://www.w3.org/2000/svg">
<path d="M15.166 1.33398H5.8327V4.76732C4.94779 4.94819 4.1284 5.36538 3.46157 5.97458C2.79474 6.58378 2.30538 7.36222 2.04547 8.22723C1.78557 9.09223 1.76482 10.0115 1.98543 10.8873C2.20605 11.7632 2.65979 12.5629 3.29845 13.2016C3.93711 13.8402 4.73685 14.294 5.61269 14.5146C6.48854 14.7352 7.40779 14.7145 8.27279 14.4545C9.1378 14.1946 9.91624 13.7053 10.5254 13.0384C11.1346 12.3716 11.5518 11.5522 11.7327 10.6673H15.166V1.33398ZM11.822 9.33398C11.7413 8.12571 11.2248 6.9878 10.3685 6.13151C9.51222 5.27523 8.37431 4.75875 7.16604 4.67798V2.66732H13.8327V9.33398H11.822ZM6.8327 6.00065C7.80516 6.00065 8.73779 6.38696 9.42543 7.07459C10.1131 7.76223 10.4994 8.69486 10.4994 9.66732C10.4994 10.6398 10.1131 11.5724 9.42543 12.26C8.73779 12.9477 7.80516 13.334 6.8327 13.334C5.86024 13.334 4.92761 12.9477 4.23998 12.26C3.55234 11.5724 3.16604 10.6398 3.16604 9.66732C3.16604 8.69486 3.55234 7.76223 4.23998 7.07459C4.92761 6.38696 5.86024 6.00065 6.8327 6.00065Z" fill="#F4F8F9"/>
</svg>
